<svg width="19" height="19" viewBox="0 0 19 19" fill="none" xmlns="http://www.w3.org/2000/svg">
<g id="SVG" clip-path="url(#clip0_1_687)">
<g id="Clip path group">
<mask id="mask0_1_687" style="mask-type:luminance" maskUnits="userSpaceOnUse" x="0" y="0" width="19" height="19">
<g id="__lottie_element_76">
<path id="Vector" d="M18.3301 0.779785H0.330078V18.7798H18.3301V0.779785Z" fill="white"/>
</g>
</mask>
<g mask="url(#mask0_1_687)">
<g id="Group">
<g id="Clip path group_2">
<mask id="mask1_1_687" style="mask-type:luminance" maskUnits="userSpaceOnUse" x="0" y="0" width="19" height="19">
<g id="__lottie_element_96">
<path id="Vector_2" d="M0.330078 0.779785H18.3301V18.7798H0.330078V0.779785Z" fill="white"/>
</g>
</mask>
<g mask="url(#mask1_1_687)">
<g id="Group_2">
<g id="Group_3">
<g id="Group_4">
<path id="Vector_3" d="M16.8305 4.33356C16.8303 4.32345 16.8297 4.3134 16.829 4.30332C16.8284 4.29457 16.8279 4.28579 16.8269 4.27715C16.8258 4.26811 16.8243 4.25915 16.8228 4.25018C16.8212 4.24079 16.8198 4.23136 16.8178 4.22214C16.816 4.2139 16.8136 4.2058 16.8115 4.19762C16.809 4.18808 16.8065 4.17851 16.8035 4.16918C16.8009 4.16101 16.7976 4.15295 16.7946 4.14488C16.7913 4.13599 16.7881 4.12703 16.7844 4.11835C16.7807 4.10982 16.7764 4.10154 16.7723 4.09319C16.7683 4.0853 16.7646 4.07731 16.7604 4.06964C16.7557 4.06122 16.7504 4.05308 16.7453 4.04488C16.7407 4.03753 16.7363 4.03012 16.7314 4.02303C16.7261 4.01539 16.7204 4.00801 16.7147 4.0006C16.7091 3.99325 16.7035 3.98587 16.6975 3.97882C16.692 3.97226 16.686 3.966 16.6801 3.95966C16.6731 3.95214 16.6662 3.94469 16.6588 3.93756C16.6567 3.93551 16.6548 3.93328 16.6527 3.93126C16.6487 3.92752 16.6444 3.92442 16.6403 3.92082C16.6326 3.91398 16.6248 3.90725 16.6167 3.90084C16.6099 3.89541 16.6029 3.89029 16.5958 3.88522C16.588 3.8796 16.5802 3.87413 16.5721 3.86891C16.5644 3.86398 16.5566 3.8593 16.5488 3.85476C16.5408 3.85015 16.5328 3.84572 16.5246 3.84151C16.5164 3.8373 16.5081 3.83334 16.4997 3.82956C16.4914 3.82578 16.483 3.82218 16.4744 3.8188C16.4659 3.81545 16.4574 3.81235 16.4488 3.80944C16.4401 3.80645 16.4312 3.80364 16.4223 3.80108C16.4135 3.7986 16.4047 3.79637 16.3959 3.79432C16.3869 3.79223 16.3779 3.79028 16.3688 3.78863C16.3595 3.78694 16.3501 3.78557 16.3407 3.78434C16.332 3.78323 16.3233 3.78215 16.3145 3.78143C16.3043 3.7806 16.2941 3.78017 16.2839 3.77988C16.2784 3.77974 16.2731 3.77905 16.2675 3.77905H2.3925C2.3871 3.77905 2.38185 3.77974 2.37648 3.77988C2.36608 3.78017 2.35571 3.7806 2.34534 3.78146C2.3367 3.78218 2.32821 3.78319 2.31967 3.78431C2.31006 3.78557 2.30049 3.78694 2.29095 3.78866C2.28205 3.79028 2.27323 3.79219 2.26449 3.79424C2.25545 3.79633 2.24649 3.7986 2.23752 3.80116C2.22874 3.80368 2.2201 3.80641 2.21149 3.80933C2.20275 3.81232 2.19403 3.81545 2.18539 3.81887C2.17701 3.82218 2.16876 3.82574 2.16055 3.82945C2.15202 3.8333 2.1436 3.83734 2.13525 3.84162C2.12718 3.84576 2.1193 3.85012 2.11149 3.85462C2.10349 3.85922 2.09561 3.86398 2.0878 3.86902C2.07981 3.87416 2.07207 3.87957 2.06436 3.88511C2.05723 3.89022 2.05021 3.89537 2.04327 3.90088C2.0352 3.90725 2.02746 3.91398 2.01976 3.92078C2.01569 3.92438 2.01137 3.92752 2.00737 3.93126C2.00521 3.93328 2.00338 3.93551 2.00125 3.93756C1.99387 3.94469 1.98693 3.95214 1.97994 3.95966C1.97407 3.966 1.9681 3.97226 1.96255 3.97882C1.95658 3.98587 1.951 3.99325 1.94538 4.0006C1.93969 4.00801 1.93393 4.01539 1.92864 4.02303C1.92375 4.03012 1.91932 4.03753 1.91475 4.04488C1.90963 4.05308 1.90434 4.06122 1.8997 4.06964C1.89541 4.07735 1.89171 4.08534 1.88778 4.09326C1.88368 4.10161 1.87936 4.10986 1.87569 4.11835C1.87191 4.12706 1.86874 4.13603 1.86539 4.14496C1.86237 4.15302 1.85916 4.16101 1.85653 4.16918C1.85351 4.17851 1.8511 4.18808 1.84858 4.19762C1.84642 4.2058 1.84408 4.2139 1.84228 4.22214C1.84026 4.23136 1.83882 4.24079 1.83727 4.25018C1.8358 4.25915 1.83421 4.26811 1.83317 4.27715C1.83216 4.28579 1.83169 4.29457 1.83108 4.30332C1.8304 4.3134 1.82971 4.32345 1.82953 4.33356C1.8295 4.33655 1.8291 4.33943 1.8291 4.34245V15.2175C1.8291 15.5287 2.08132 15.7809 2.3925 15.7809H16.2675C16.5787 15.7809 16.8309 15.5287 16.8309 15.2175V4.34245C16.8309 4.33943 16.8306 4.33655 16.8305 4.33356ZM14.9679 4.90585L10.5511 9.62185C10.2296 9.96508 9.79594 10.1541 9.32999 10.1541C8.86404 10.1541 8.43042 9.96508 8.10898 9.62185L3.6921 4.90585H14.9679ZM2.9559 14.6541V5.76823L7.28652 10.3921C7.82328 10.9652 8.54904 11.2809 9.32999 11.2809C9.32992 11.2809 9.33003 11.2809 9.32999 11.2809C10.1109 11.2809 10.8367 10.9652 11.3735 10.3921L15.7041 5.76823V14.6541H2.9559Z" fill="white"/>
</g>
</g>
</g>
</g>
</g>
</g>
</g>
</g>
</g>
<defs>
<clipPath id="clip0_1_687">
<rect width="18" height="18" fill="white" transform="translate(0.330078 0.779785)"/>
</clipPath>
</defs>
</svg>
