<svg width="19" height="19" viewBox="0 0 19 19" fill="none" xmlns="http://www.w3.org/2000/svg">
<g id="SVG" clip-path="url(#clip0_1_717)">
<g id="Clip path group">
<mask id="mask0_1_717" style="mask-type:luminance" maskUnits="userSpaceOnUse" x="0" y="0" width="19" height="19">
<g id="__lottie_element_173">
<path id="Vector" d="M18.6602 0.779785H0.660156V18.7798H18.6602V0.779785Z" fill="white"/>
</g>
</mask>
<g mask="url(#mask0_1_717)">
<g id="Group">
<g id="Clip path group_2">
<mask id="mask1_1_717" style="mask-type:luminance" maskUnits="userSpaceOnUse" x="0" y="0" width="19" height="19">
<g id="__lottie_element_221">
<path id="Vector_2" d="M0.660156 0.779785H18.6602V18.7798H0.660156V0.779785Z" fill="white"/>
</g>
</mask>
<g mask="url(#mask1_1_717)">
<g id="Group_2">
<g id="Group_3">
<g id="Group_4">
<path id="Vector_3" d="M9.66014 2.27905C5.5241 2.27905 2.15918 5.64394 2.15918 9.77998C2.15918 13.916 5.5241 17.2809 9.66014 17.2809C13.7962 17.2809 17.1611 13.916 17.1611 9.77998C17.1611 5.64394 13.7962 2.27905 9.66014 2.27905ZM16.0091 9.21658H12.6545C12.6043 7.05125 12.2661 5.10476 11.7207 3.74778C14.0569 4.54802 15.7849 6.66972 16.0091 9.21658ZM10.3162 3.43941C10.9981 4.53355 11.4644 6.76379 11.527 9.21658H7.793C7.86075 6.45646 8.41915 4.39787 9.00591 3.43919C9.22105 3.41716 9.43928 3.40582 9.66014 3.40582C9.88161 3.40582 10.1005 3.41723 10.3162 3.43941ZM7.60198 3.74692C7.05525 5.10739 6.71613 7.05481 6.66577 9.21658H3.31118C3.53539 6.66886 5.2645 4.54651 7.60198 3.74692ZM3.31118 10.3434H6.66577C6.71613 12.5051 7.05518 14.4525 7.60191 15.813C5.26447 15.0134 3.53539 12.8911 3.31118 10.3434ZM9.00584 16.1207C8.41911 15.162 7.86072 13.1034 7.79296 10.3434H11.527C11.4644 12.7961 10.9982 15.0263 10.3163 16.1205C10.1006 16.1427 9.88165 16.1541 9.66014 16.1541C9.43928 16.1541 9.22101 16.1428 9.00584 16.1207ZM11.7207 15.8121C12.2662 14.4551 12.6043 12.5087 12.6545 10.3434H16.0091C15.7849 12.8902 14.057 15.0119 11.7207 15.8121Z" fill="white"/>
</g>
</g>
</g>
</g>
</g>
</g>
</g>
</g>
</g>
<defs>
<clipPath id="clip0_1_717">
<rect width="18" height="18" fill="white" transform="translate(0.660156 0.779785)"/>
</clipPath>
</defs>
</svg>
