<svg width="24" height="25" viewBox="0 0 24 25" fill="none" xmlns="http://www.w3.org/2000/svg">
<g id="SVG">
<path id="Vector" d="M8.62502 19.2798H6.05002C5.90404 19.2788 5.76435 19.2202 5.66122 19.1169C5.55808 19.0136 5.49981 18.8738 5.49902 18.7278V13.2138C5.49889 13.1414 5.51305 13.0697 5.5407 13.0028C5.56834 12.9359 5.60892 12.8751 5.66011 12.8239C5.71131 12.7727 5.7721 12.7321 5.83901 12.7045C5.90592 12.6768 5.97763 12.6627 6.05002 12.6628H8.62402C8.69642 12.6627 8.76813 12.6768 8.83504 12.7045C8.90195 12.7321 8.96274 12.7727 9.01393 12.8239C9.06512 12.8751 9.10571 12.9359 9.13335 13.0028C9.16099 13.0697 9.17516 13.1414 9.17502 13.2138V18.7278C9.17502 19.0298 8.92502 19.2798 8.62402 19.2798H8.62502ZM6.60302 18.1768H8.07302V13.7658H6.60302V18.1768ZM13.402 19.2788H10.83C10.684 19.278 10.5442 19.2197 10.4409 19.1166C10.3376 19.0135 10.2791 18.8738 10.278 18.7278V7.32981C10.278 7.02881 10.528 6.77881 10.83 6.77881H13.403C13.705 6.77881 13.955 7.02881 13.955 7.32981V18.7268C13.955 19.0278 13.705 19.2778 13.403 19.2778L13.402 19.2788ZM11.38 18.1758H12.85V7.88281H11.38V18.1758ZM18.183 19.2778H15.61C15.4644 19.2768 15.325 19.2185 15.2219 19.1156C15.1188 19.0127 15.0603 18.8734 15.059 18.7278V10.2708C15.059 9.96881 15.309 9.71881 15.61 9.71881H18.183C18.485 9.71881 18.735 9.96881 18.735 10.2708V18.7258C18.735 19.0278 18.485 19.2778 18.183 19.2778ZM16.162 18.1758H17.632V10.8228H16.162V18.1758Z" fill="#91FFE7" fill-opacity="0.91"/>
</g>
</svg>
