<svg width="32" height="33" viewBox="0 0 32 33" fill="none" xmlns="http://www.w3.org/2000/svg">
<g id="SVG">
<path id="Vector" fill-rule="evenodd" clip-rule="evenodd" d="M14.1089 8.95007H13.3694V13.3137H8.93311V14.041H13.3694V19.8591H8.93311V20.5865H13.3694V24.9501H14.1089V20.5865H20.024V24.9501H20.7634V20.5865H25.1998V19.8591H20.7634V14.041H25.1998V13.3137H20.7634V8.95007H20.024V13.3137H14.1089V8.95007ZM20.024 19.8591V14.041H14.1089V19.8591H20.024Z" fill="#FCFDFF" fill-opacity="0.1874"/>
<path id="Vector_2" d="M20.718 7.97577H13.3333C10.3878 7.97577 8 10.3636 8 13.3091V20.6938C8 23.6393 10.3878 26.0271 13.3333 26.0271H20.718C23.6635 26.0271 26.0513 23.6393 26.0513 20.6938V13.3091C26.0513 10.3636 23.6635 7.97577 20.718 7.97577Z" fill="#FCFDFF" fill-opacity="0.14055" stroke="#FCFDFF" stroke-opacity="0.937" stroke-width="2"/>
<path id="Vector_3" d="M29.3333 8.38605C29.3333 5.89369 27.3128 3.87323 24.8204 3.87323C22.3281 3.87323 20.3076 5.89369 20.3076 8.38605C20.3076 10.8784 22.3281 12.8989 24.8204 12.8989C27.3128 12.8989 29.3333 10.8784 29.3333 8.38605Z" fill="black" stroke="#FCFDFF" stroke-opacity="0.937" stroke-width="2"/>
<path id="Vector_4" d="M26.0514 8.38592C26.0514 7.70618 25.5003 7.15515 24.8206 7.15515C24.1409 7.15515 23.5898 7.70618 23.5898 8.38592C23.5898 9.06565 24.1409 9.61668 24.8206 9.61668C25.5003 9.61668 26.0514 9.06565 26.0514 8.38592Z" fill="#FCFDFF" fill-opacity="0.937"/>
</g>
</svg>
