<svg width="32" height="33" viewBox="0 0 32 33" fill="none" xmlns="http://www.w3.org/2000/svg">
<g id="SVG">
<path id="Vector" d="M20.3075 11.0359V10.7453C20.3075 10.3771 20.009 10.0787 19.6409 10.0787H12.3588C11.9906 10.0787 11.6921 10.3771 11.6921 10.7453V11.0359C11.6921 11.3003 11.9064 11.5146 12.1707 11.5146C12.6994 11.5146 13.128 11.9431 13.128 12.4718V17.6646C13.128 18.5348 12.7034 19.3502 11.9906 19.8492L10.424 20.9458C9.84448 21.3514 9.38646 21.9074 9.09916 22.5538C7.9551 25.128 9.83936 28.0274 12.6563 28.0274H19.3433C22.1602 28.0274 24.0445 25.128 22.9005 22.5538C22.6131 21.9074 22.1551 21.3514 21.5755 20.9458L20.009 19.8492C19.2962 19.3502 18.8715 18.5348 18.8715 17.6646V12.4718C18.8715 11.9431 19.3002 11.5146 19.8289 11.5146C20.0931 11.5146 20.3075 11.3003 20.3075 11.0359Z" stroke="#FCFDFF" stroke-opacity="0.937" stroke-width="2"/>
<path id="Vector_2" d="M22.8207 24.4373C22.8207 24.4373 21.0258 24.7962 17.0771 23.3603C13.1284 21.9243 9.17969 24.4373 9.17969 24.4373" stroke="#FCFDFF" stroke-opacity="0.4685" stroke-width="1.33333" stroke-linecap="round"/>
<path id="Vector_3" d="M21.7435 21.2065C21.7435 21.2065 18.5127 19.4115 15.641 20.4885C12.7692 21.5654 10.2563 21.2065 10.2563 21.2065" stroke="#FCFDFF" stroke-opacity="0.4685" stroke-width="1.33333" stroke-linecap="round"/>
<path id="Vector_4" d="M18.8717 17.2578C18.8717 17.2578 17.0769 17.6167 15.641 16.8987C14.205 16.1807 13.3076 17.2578 13.3076 17.2578" stroke="#FCFDFF" stroke-opacity="0.4685" stroke-width="1.33333" stroke-linecap="round"/>
<path id="Vector_5" d="M16.0515 11.5142H15.9489C15.5807 11.5142 15.2822 11.8127 15.2822 12.1809V12.2834C15.2822 12.6516 15.5807 12.9501 15.9489 12.9501H16.0515C16.4196 12.9501 16.7181 12.6516 16.7181 12.2834V12.1809C16.7181 11.8127 16.4196 11.5142 16.0515 11.5142Z" fill="#FCFDFF" fill-opacity="0.937"/>
<path id="Vector_6" d="M17.487 5.05261H17.3844C17.0163 5.05261 16.7178 5.35109 16.7178 5.71928V5.82184C16.7178 6.19003 17.0163 6.48851 17.3844 6.48851H17.487C17.8552 6.48851 18.1537 6.19003 18.1537 5.82184V5.71928C18.1537 5.35109 17.8552 5.05261 17.487 5.05261Z" fill="#FCFDFF" fill-opacity="0.937"/>
<path id="Vector_7" d="M13.8972 2.18085H13.7946C13.4264 2.18085 13.1279 2.47932 13.1279 2.84751V2.95007C13.1279 3.31826 13.4264 3.61674 13.7946 3.61674H13.8972C14.2653 3.61674 14.5638 3.31826 14.5638 2.95007V2.84751C14.5638 2.47932 14.2653 2.18085 13.8972 2.18085Z" fill="#FCFDFF" fill-opacity="0.937"/>
</g>
</svg>
