<svg width="25" height="25" viewBox="0 0 25 25" fill="none" xmlns="http://www.w3.org/2000/svg">
<g id="SVG" clip-path="url(#clip0_1_570)">
<path id="Vector" fill-rule="evenodd" clip-rule="evenodd" d="M5.33008 10.318C4.79399 10.6913 4.36155 11.2148 4.09931 11.8442L2.44546 15.8134C2.3693 15.9962 2.33008 16.1923 2.33008 16.3903V20.1903C2.33008 22.1233 3.89708 23.6903 5.83008 23.6903H18.8301C20.7631 23.6903 22.3301 22.1233 22.3301 20.1903V16.3903C22.3301 16.1923 22.2909 15.9962 22.2147 15.8134L20.5609 11.8442C20.2986 11.2148 19.8662 10.6913 19.3301 10.318V11.69C19.4529 11.8537 19.5567 12.0342 19.6378 12.2288L21.2916 16.198C21.317 16.2589 21.3301 16.3243 21.3301 16.3903V20.1903C21.3301 21.571 20.2108 22.6903 18.8301 22.6903H5.83008C4.44937 22.6903 3.33008 21.571 3.33008 20.1903V16.3903C3.33008 16.3243 3.34315 16.2589 3.36854 16.198L5.02239 12.2288C5.10347 12.0342 5.20734 11.8537 5.33013 11.69L5.33008 10.318Z" fill="#FCFDFF" fill-opacity="0.937"/>
<path id="Vector_2" d="M15.8301 16.1901H21.8301M2.83008 16.1901H8.83008" stroke="#FCFDFF" stroke-opacity="0.937"/>
<path id="Vector_3" fill-rule="evenodd" clip-rule="evenodd" d="M8.33008 15.6901C8.33008 17.8992 10.1209 19.6901 12.3301 19.6901C14.5392 19.6901 16.3301 17.8992 16.3301 15.6901H15.3301C15.3301 17.347 13.987 18.6901 12.3301 18.6901C10.6732 18.6901 9.33008 17.347 9.33008 15.6901H8.33008Z" fill="#FCFDFF" fill-opacity="0.937"/>
<path id="Vector_4" d="M7.83008 3.69006V8.69006" stroke="#FCFDFF" stroke-opacity="0.937"/>
<path id="Vector_5" d="M16.8301 2.69006V8.69006" stroke="#FCFDFF" stroke-opacity="0.937"/>
<path id="Vector_6" d="M13.8301 0.690063V7.69006" stroke="#FCFDFF" stroke-opacity="0.937"/>
<path id="Vector_7" d="M10.8301 1.69006V7.69006" stroke="#FCFDFF" stroke-opacity="0.937"/>
<path id="Vector_8" d="M5.83008 16.1901V14.1901C5.83008 13.6378 6.2778 13.1901 6.83008 13.1901H17.8301C18.3824 13.1901 18.8301 13.6378 18.8301 14.1901V16.1901" stroke="#FCFDFF" stroke-opacity="0.937"/>
<path id="Vector_9" d="M7.83008 13.1901V11.1901C7.83008 10.6378 8.2778 10.1901 8.83008 10.1901H15.8301C16.3824 10.1901 16.8301 10.6378 16.8301 11.1901V13.1901" stroke="#FCFDFF" stroke-opacity="0.937"/>
</g>
<defs>
<clipPath id="clip0_1_570">
<rect width="24" height="24" fill="white" transform="translate(0.330078 0.690063)"/>
</clipPath>
</defs>
</svg>
