<svg width="25" height="25" viewBox="0 0 25 25" fill="none" xmlns="http://www.w3.org/2000/svg">
<g id="SVG">
<path id="Vector" d="M6.83008 9.03003L10.6505 11.1525C11.0962 11.4001 11.5976 11.53 12.1075 11.53H12.5527C13.0626 11.53 13.564 11.4001 14.0097 11.1525L17.8301 9.03003M9.53008 16.03H15.1301C16.2502 16.03 16.8103 16.03 17.2381 15.812C17.6144 15.6203 17.9204 15.3143 18.1121 14.938C18.3301 14.5102 18.3301 13.9501 18.3301 12.83V10.23C18.3301 9.10993 18.3301 8.54987 18.1121 8.12205C17.9204 7.74572 17.6144 7.43976 17.2381 7.24802C16.8103 7.03003 16.2502 7.03003 15.1301 7.03003H9.53008C8.40998 7.03003 7.84992 7.03003 7.4221 7.24802C7.04577 7.43976 6.73981 7.74572 6.54807 8.12205C6.33008 8.54987 6.33008 9.10992 6.33008 10.23V12.83C6.33008 13.9501 6.33008 14.5102 6.54807 14.938C6.73981 15.3143 7.04577 15.6203 7.4221 15.812C7.84992 16.03 8.40997 16.03 9.53008 16.03Z" stroke="white"/>
<path id="Vector_2" d="M6.47557 3.19409L4.48486 4.01379L5.20022 4.80069L6.83465 4.12769L6.47557 3.19409Z" fill="#FCFDFF" fill-opacity="0.937"/>
<path id="Vector_3" d="M8.68476 3.36591L8.32568 2.43231L10.3302 1.60693V2.68839L8.68476 3.36591Z" fill="#FCFDFF" fill-opacity="0.937"/>
<path id="Vector_4" d="M21.6267 10.03C21.6212 9.68383 21.604 9.33746 21.5752 8.9915L21.3634 6.44997C21.3478 6.26338 21.2968 6.08147 21.2131 5.91399C21.0542 5.59616 20.7856 5.34656 20.457 5.21126L13.1021 2.18274C12.8572 2.08191 12.5949 2.03003 12.3301 2.03003V1.03003C12.7255 1.03003 13.1172 1.1075 13.4828 1.25807L20.8378 4.28658C21.3896 4.51381 21.8406 4.933 22.1075 5.46678C22.2481 5.74804 22.3338 6.05355 22.3599 6.36693L22.5717 8.90846C22.6029 9.28208 22.6212 9.65616 22.6268 10.03H21.6267Z" fill="#FCFDFF" fill-opacity="0.937"/>
<path id="Vector_5" d="M21.3086 13.4126C21.403 12.955 21.4767 12.4937 21.5295 12.03H22.5355C22.4755 12.5922 22.3866 13.1512 22.2691 13.7049L21.3086 13.4126Z" fill="#FCFDFF" fill-opacity="0.937"/>
<path id="Vector_6" d="M20.1201 16.7959C20.3577 16.3736 20.5613 15.931 20.7281 15.4722L20.7758 15.3412L21.7338 15.6327L21.6679 15.8139C21.4567 16.3948 21.1925 16.9522 20.8799 17.4797L20.1201 16.7959Z" fill="#FCFDFF" fill-opacity="0.937"/>
<path id="Vector_7" d="M17.625 19.6155C17.7723 19.5046 17.9168 19.3901 18.0586 19.2719C18.3731 19.0098 18.6682 18.7272 18.9421 18.4264L19.6854 19.0954C19.3797 19.4315 19.0502 19.7473 18.6987 20.0402C18.4804 20.2221 18.2559 20.3964 18.0257 20.5625L17.625 19.6155Z" fill="#FCFDFF" fill-opacity="0.937"/>
<path id="Vector_8" d="M14.3301 21.4711L15.8855 20.6933C15.8921 20.69 15.8987 20.6867 15.9054 20.6833L16.2958 21.6063L14.4481 22.5301C14.409 22.5497 14.3697 22.5686 14.3301 22.587V21.4711Z" fill="#FCFDFF" fill-opacity="0.937"/>
<path id="Vector_9" d="M3.27784 13.03C3.38775 13.6394 3.5343 14.2428 3.71712 14.837L3.80449 15.1209L3.96149 15.5527C4.48059 16.9802 5.36884 18.2446 6.53573 19.217C7.24673 19.8095 8.02387 20.3178 8.85167 20.7317L10.6595 21.6356C11.1783 21.895 11.7503 22.03 12.3303 22.03V23.03C11.5951 23.03 10.8699 22.8588 10.2123 22.53L8.40446 21.6261C7.50768 21.1777 6.66579 20.6271 5.89555 19.9852C4.59284 18.8996 3.60121 17.4881 3.0217 15.8945L2.8561 15.4391L2.76134 15.1311C2.54899 14.4409 2.38261 13.7391 2.2627 13.03H3.27784Z" fill="#FCFDFF" fill-opacity="0.937"/>
<path id="Vector_10" d="M3.037 9.85653C3.02633 10.2481 3.03051 10.6396 3.04947 11.0301H2.04836C2.02286 10.4706 2.02582 9.9094 2.05748 9.34863L3.037 9.85653Z" fill="#FCFDFF" fill-opacity="0.937"/>
<path id="Vector_11" d="M3.4698 5.87033C3.46198 5.88474 3.45439 5.8993 3.44704 5.91401C3.3633 6.08149 3.31229 6.2634 3.29674 6.44999L3.19384 7.68487L2.23193 7.1861L2.3002 6.36695C2.32631 6.05357 2.41198 5.74806 2.55261 5.4668C2.61634 5.33935 2.69056 5.21843 2.77414 5.1051L3.4698 5.87033Z" fill="#FCFDFF" fill-opacity="0.937"/>
</g>
</svg>
