<svg width="24" height="25" viewBox="0 0 24 25" fill="none" xmlns="http://www.w3.org/2000/svg">
<g id="SVG">
<path id="Vector" d="M12 14.1901C12.8284 14.1901 13.5 13.5185 13.5 12.6901C13.5 11.8616 12.8284 11.1901 12 11.1901C11.1716 11.1901 10.5 11.8616 10.5 12.6901C10.5 13.5185 11.1716 14.1901 12 14.1901Z" stroke="#FCFDFF" stroke-opacity="0.937"/>
<path id="Vector_2" fill-rule="evenodd" clip-rule="evenodd" d="M12 2.69006C12.8219 2.69006 13.6205 2.7892 14.3848 2.97618C14.2426 3.27546 14.1366 3.5952 14.0722 3.92977C13.4069 3.773 12.7132 3.69006 12 3.69006C8.42719 3.69006 5.34061 5.77195 3.88723 8.78879C3.60187 8.72417 3.30494 8.69006 3.00004 8.69006C2.94326 8.69006 2.88677 8.69124 2.83057 8.69359C4.37288 5.15989 7.89802 2.69006 12 2.69006ZM2.83057 16.6866C4.37287 20.2203 7.89802 22.6901 12 22.6901C17.5229 22.6901 22 18.2129 22 12.6901C22 10.8647 21.5109 9.15352 20.6566 7.68049C20.4069 7.90253 20.1291 8.09375 19.8293 8.2482C20.5745 9.55876 21 11.0747 21 12.6901C21 17.6607 16.9706 21.6901 12 21.6901C8.42719 21.6901 5.34061 19.6082 3.88722 16.5914C3.60187 16.656 3.30494 16.6901 3.00004 16.6901C2.94327 16.6901 2.88676 16.6889 2.83057 16.6866Z" fill="#FCFDFF" fill-opacity="0.937"/>
<path id="Vector_3" fill-rule="evenodd" clip-rule="evenodd" d="M12.0998 17.6891C12.0666 17.6898 12.0334 17.6901 12 17.6901C9.23858 17.6901 7 15.4515 7 12.6901C7 9.92864 9.23858 7.69006 12 7.69006C14.4193 7.69006 16.4373 9.40831 16.9002 11.6911C16.9334 11.6904 16.9666 11.6901 17 11.6901C17.3181 11.6901 17.6293 11.7198 17.9309 11.7766C17.4909 8.89641 15.0031 6.69006 12 6.69006C8.68629 6.69006 6 9.37635 6 12.6901C6 16.0038 8.68629 18.6901 12 18.6901C12.1378 18.6901 12.2745 18.6855 12.41 18.6763C12.2741 18.3626 12.1694 18.0322 12.0998 17.6891Z" fill="#FCFDFF" fill-opacity="0.937"/>
<path id="Vector_4" d="M16.5 17.1901C17.3284 17.1901 18 16.5185 18 15.6901C18 14.8616 17.3284 14.1901 16.5 14.1901C15.6716 14.1901 15 14.8616 15 15.6901C15 16.5185 15.6716 17.1901 16.5 17.1901Z" fill="#FCFDFF" fill-opacity="0.937"/>
<path id="Vector_5" d="M2.5 14.1901C3.32843 14.1901 4 13.5185 4 12.6901C4 11.8616 3.32843 11.1901 2.5 11.1901C1.67157 11.1901 1 11.8616 1 12.6901C1 13.5185 1.67157 14.1901 2.5 14.1901Z" fill="#FCFDFF" fill-opacity="0.937"/>
<path id="Vector_6" d="M18 6.19006C18.8284 6.19006 19.5 5.51849 19.5 4.69006C19.5 3.86164 18.8284 3.19006 18 3.19006C17.1716 3.19006 16.5 3.86164 16.5 4.69006C16.5 5.51849 17.1716 6.19006 18 6.19006Z" fill="#FCFDFF" fill-opacity="0.937"/>
<path id="Vector_7" d="M11.5 11.1901V3.19006M12.5 14.1901V22.1901" stroke="#FCFDFF" stroke-opacity="0.937"/>
</g>
</svg>
