<svg width="25" height="25" viewBox="0 0 25 25" fill="none" xmlns="http://www.w3.org/2000/svg">
<g id="SVG" clip-path="url(#clip0_1_582)">
<path id="Vector" fill-rule="evenodd" clip-rule="evenodd" d="M1.66016 6.09006V16.2901V16.3262C1.66014 16.7153 1.66012 17.0654 1.68392 17.3567C1.70941 17.6687 1.7671 18.0002 1.93265 18.3251C2.17233 18.7955 2.55478 19.1779 3.02518 19.4176C3.35009 19.5832 3.68156 19.6409 3.99353 19.6663C4.28484 19.6901 4.63496 19.6901 5.02403 19.6901H5.06016H8.66016V18.6901H5.06016C4.22008 18.6901 3.80004 18.6901 3.47918 18.5266C3.19693 18.3828 2.96746 18.1533 2.82365 17.8711C2.66016 17.5502 2.66016 17.1302 2.66016 16.2901V6.09006C2.66016 5.24998 2.66016 4.82994 2.82365 4.50908C2.96746 4.22683 3.19693 3.99736 3.47918 3.85355C3.80004 3.69006 4.22008 3.69006 5.06016 3.69006H20.2602C21.1003 3.69006 21.5203 3.69006 21.8412 3.85355C22.1234 3.99736 22.3529 4.22683 22.4967 4.50908C22.6602 4.82994 22.6602 5.24998 22.6602 6.09006V16.2901C22.6602 17.1302 22.6602 17.5502 22.4967 17.8711C22.3529 18.1533 22.1234 18.3828 21.8412 18.5266C21.5758 18.6618 21.2427 18.6852 20.6602 18.6893V19.6893C20.9053 19.6877 21.1295 19.6825 21.3268 19.6663C21.6388 19.6409 21.9703 19.5832 22.2952 19.4176C22.7656 19.1779 23.148 18.7955 23.3877 18.3251C23.5533 18.0002 23.611 17.6687 23.6364 17.3567C23.6602 17.0654 23.6602 16.7153 23.6602 16.3262V16.2901V6.09006V6.05396C23.6602 5.66488 23.6602 5.31474 23.6364 5.02343C23.611 4.71147 23.5533 4.37999 23.3877 4.05509C23.148 3.58468 22.7656 3.20223 22.2952 2.96255C21.9703 2.797 21.6388 2.73931 21.3268 2.71382C21.0355 2.69002 20.6854 2.69004 20.2964 2.69006H20.2602H5.06016H5.02407C4.63501 2.69004 4.28483 2.69002 3.99353 2.71382C3.68156 2.73931 3.35009 2.797 3.02519 2.96255C2.55478 3.20223 2.17233 3.58468 1.93265 4.05509C1.7671 4.37999 1.70941 4.71146 1.68392 5.02343C1.66012 5.31475 1.66014 5.66488 1.66016 6.05396V6.09006Z" fill="#FCFDFF" fill-opacity="0.937"/>
<path id="Vector_2" d="M13.1602 17.6901V23.1901L14.6602 22.1901L16.1602 23.1901V17.6901" stroke="#FCFDFF" stroke-opacity="0.937"/>
<path id="Vector_3" d="M15.7955 9.48435L15.9712 9.65429L16.2132 9.62006L17.7777 9.39877L18.0507 10.9551L18.0929 11.1959L18.3088 11.3104L19.7046 12.051L19.0107 13.4705L18.9034 13.6901L19.0107 13.9097L19.7046 15.3292L18.3088 16.0698L18.0929 16.1843L18.0507 16.4251L17.7777 17.9814L16.2132 17.7601L15.9712 17.7259L15.7955 17.8958L14.6599 18.9944L13.5243 17.8958L13.3486 17.7259L13.1066 17.7601L11.5421 17.9814L11.2691 16.4251L11.2269 16.1843L11.011 16.0698L9.61523 15.3292L10.3091 13.9097L10.4165 13.6901L10.3091 13.4705L9.61523 12.051L11.011 11.3104L11.2269 11.1959L11.2691 10.9551L11.5421 9.39877L13.1066 9.62006L13.3486 9.65429L13.5243 9.48435L14.6599 8.38574L15.7955 9.48435Z" stroke="#FCFDFF" stroke-opacity="0.937"/>
<path id="Vector_4" d="M14.6602 12.1901C15.4886 12.1901 16.1602 12.8616 16.1602 13.6901C16.1602 14.5185 15.4886 15.1901 14.6602 15.1901C13.8317 15.1901 13.1602 14.5185 13.1602 13.6901C13.1602 12.8616 13.8317 12.1901 14.6602 12.1901Z" fill="#FCFDFF" fill-opacity="0.937"/>
<path id="Vector_5" d="M10.6602 5.69006H4.66016V6.69006H10.6602V5.69006Z" fill="#FCFDFF" fill-opacity="0.937"/>
<path id="Vector_6" d="M20.6602 5.69006H18.6602V6.69006H20.6602V5.69006Z" fill="#FCFDFF" fill-opacity="0.937"/>
<path id="Vector_7" d="M7.66016 8.69006H4.66016V9.69006H7.66016V8.69006Z" fill="#FCFDFF" fill-opacity="0.937"/>
<path id="Vector_8" d="M6.66016 11.6901H4.66016V12.6901H6.66016V11.6901Z" fill="#FCFDFF" fill-opacity="0.937"/>
<path id="Vector_9" d="M5.66016 14.6901H4.66016V15.6901H5.66016V14.6901Z" fill="#FCFDFF" fill-opacity="0.937"/>
</g>
<defs>
<clipPath id="clip0_1_582">
<rect width="24" height="24" fill="white" transform="translate(0.660156 0.690063)"/>
</clipPath>
</defs>
</svg>
