<svg width="25" height="25" viewBox="0 0 25 25" fill="none" xmlns="http://www.w3.org/2000/svg">
<g id="SVG">
<path id="Vector" d="M19.6602 3.36011H5.66016C3.72716 3.36011 2.16016 4.92711 2.16016 6.86011V16.8601C2.16016 18.7931 3.72716 20.3601 5.66016 20.3601H19.6602C21.5932 20.3601 23.1602 18.7931 23.1602 16.8601V6.86011C23.1602 4.92711 21.5932 3.36011 19.6602 3.36011Z" stroke="#FCFDFF" stroke-opacity="0.937"/>
<path id="Vector_2" d="M6.66016 23.3601H18.6602" stroke="#FCFDFF" stroke-opacity="0.937"/>
<path id="Vector_3" d="M10.6602 16.3601C13.1454 16.3601 15.1602 14.3454 15.1602 11.8601C15.1602 9.37483 13.1454 7.36011 10.6602 7.36011C8.17487 7.36011 6.16016 9.37483 6.16016 11.8601C6.16016 14.3454 8.17487 16.3601 10.6602 16.3601Z" stroke="#FCFDFF" stroke-opacity="0.937"/>
<path id="Vector_4" d="M12.1602 11.8601C12.1602 13.1935 11.9431 14.3776 11.6102 15.2099C11.4432 15.6275 11.2568 15.9318 11.0754 16.1236C10.895 16.3144 10.7546 16.3601 10.6602 16.3601C10.5658 16.3601 10.4253 16.3144 10.2449 16.1236C10.0636 15.9318 9.8772 15.6275 9.71018 15.2099C9.37726 14.3776 9.16016 13.1935 9.16016 11.8601C9.16016 10.5267 9.37726 9.34259 9.71018 8.51027C9.8772 8.09272 10.0636 7.78837 10.2449 7.59659C10.4253 7.40586 10.5658 7.36011 10.6602 7.36011C10.7546 7.36011 10.895 7.40586 11.0754 7.59659C11.2568 7.78837 11.4432 8.09272 11.6102 8.51027C11.9431 9.34259 12.1602 10.5267 12.1602 11.8601Z" stroke="#FCFDFF" stroke-opacity="0.937"/>
<path id="Vector_5" d="M6.16016 12.3601H15.1602" stroke="#FCFDFF" stroke-opacity="0.937"/>
<path id="Vector_6" d="M19.1602 8.86011V12.8601M19.1602 13.8601V14.8601" stroke="#FCFDFF" stroke-opacity="0.937"/>
</g>
</svg>
