<svg width="25" height="25" viewBox="0 0 25 25" fill="none" xmlns="http://www.w3.org/2000/svg">
<g id="SVG">
<path id="Vector" d="M8.83008 14.8601L8.47653 15.2137L9.33008 14.8601H8.83008ZM11.8301 12.3601V12.8601H12.3301V12.3601H11.8301ZM10.8301 12.3601L10.3326 12.4099L10.3776 12.8601H10.8301V12.3601ZM9.33008 14.8601V8.14752H8.33008V14.8601H9.33008ZM13.3301 6.36011V7.36011H14.3301V6.36011H13.3301ZM13.3301 7.36011V12.8601H14.3301V7.36011H13.3301ZM13.8301 7.86011H14.8301V6.86011H13.8301V7.86011ZM15.3301 8.36011V9.36011H16.3301V8.36011H15.3301ZM15.3301 9.36011V12.8601H16.3301V9.36011H15.3301ZM15.8301 9.86011H16.8301V8.86011H15.8301V9.86011ZM17.3301 10.3601V13.6495H18.3301V10.3601H17.3301ZM12.1195 18.8601H11.7818V19.8601H12.1195V18.8601ZM7.28719 14.0243L8.47653 15.2137L9.18363 14.5065L7.99429 13.3172L7.28719 14.0243ZM11.3301 6.36011V12.3601H12.3301V6.36011H11.3301ZM9.90347 8.11892L10.3326 12.4099L11.3276 12.3103L10.8985 8.01941L9.90347 8.11892ZM10.8301 12.8601H11.8301V11.8601H10.8301V12.8601ZM7.11577 16.0311L6.42622 14.8818L5.56873 15.3963L6.25827 16.5456L7.11577 16.0311ZM6.33008 14.5347V14.4208H5.33008V14.5347H6.33008ZM6.33008 14.4208C6.33008 14.1111 6.5811 13.8601 6.89074 13.8601V12.8601C6.02881 12.8601 5.33008 13.5588 5.33008 14.4208H6.33008ZM9.61749 7.86011C9.76514 7.86011 9.88877 7.972 9.90347 8.11892L10.8985 8.01941C10.8327 7.36129 10.2789 6.86011 9.61749 6.86011V7.86011ZM11.7818 18.8601C10.6319 18.8601 9.5163 18.4688 8.61842 17.7505L7.99373 18.5313C9.06892 19.3915 10.4049 19.8601 11.7818 19.8601V18.8601ZM17.3301 13.6495C17.3301 16.5272 14.9972 18.8601 12.1195 18.8601V19.8601C15.5495 19.8601 18.3301 17.0795 18.3301 13.6495H17.3301ZM16.8301 9.86011C17.1062 9.86011 17.3301 10.084 17.3301 10.3601H18.3301C18.3301 9.53168 17.6585 8.86011 16.8301 8.86011V9.86011ZM12.8301 5.86011C13.1062 5.86011 13.3301 6.08397 13.3301 6.36011H14.3301C14.3301 5.53168 13.6585 4.86011 12.8301 4.86011V5.86011ZM7.99429 13.3172C7.70161 13.0245 7.30465 12.8601 6.89074 12.8601V13.8601C7.03944 13.8601 7.18204 13.9192 7.28719 14.0243L7.99429 13.3172ZM12.8301 4.86011C12.0017 4.86011 11.3301 5.53168 11.3301 6.36011H12.3301C12.3301 6.08397 12.554 5.86011 12.8301 5.86011V4.86011ZM8.61842 17.7505C8.01934 17.2712 7.51049 16.689 7.11577 16.0311L6.25827 16.5456C6.71415 17.3054 7.30183 17.9778 7.99373 18.5313L8.61842 17.7505ZM14.8301 7.86011C15.1062 7.86011 15.3301 8.08397 15.3301 8.36011H16.3301C16.3301 7.53168 15.6585 6.86011 14.8301 6.86011V7.86011ZM6.42622 14.8818C6.36331 14.777 6.33008 14.657 6.33008 14.5347H5.33008C5.33008 14.8383 5.41257 15.1361 5.56873 15.3963L6.42622 14.8818ZM9.33008 8.14752C9.33008 7.98879 9.45876 7.86011 9.61749 7.86011V6.86011C8.90647 6.86011 8.33008 7.4365 8.33008 8.14752H9.33008Z" fill="#FCFDFF" fill-opacity="0.937"/>
<path id="Vector_2" d="M12.3301 23.3601C13.3726 23.3601 14.3795 23.2082 15.3301 22.9253C19.6673 21.6345 22.8301 17.6166 22.8301 12.8601C22.8301 12.6925 22.8262 12.5258 22.8184 12.3601C22.8105 12.1924 22.7987 12.0257 22.7831 11.8601M12.3301 2.36011C10.5199 2.36011 8.8167 2.81818 7.33008 3.62473C5.54089 4.59544 4.06541 6.07092 3.0947 7.86011C2.88486 8.24688 2.69861 8.64832 2.53787 9.06248C2.23179 9.85117 2.01824 10.686 1.91056 11.5537C1.85744 11.9817 1.83008 12.4177 1.83008 12.8601C1.83008 13.0277 1.83401 13.1944 1.84178 13.3601C1.84964 13.5278 1.86144 13.6945 1.87708 13.8601M15.3301 2.79493C16.0302 3.00327 16.6996 3.28266 17.3301 3.62473M18.9997 4.7501C19.5313 5.18774 20.019 5.67662 20.4555 6.20919M21.5655 7.86011C21.9075 8.49061 22.1869 9.16006 22.3953 9.86011M9.33008 22.9253C8.63003 22.7169 7.96058 22.4375 7.33008 22.0955M5.67244 20.98C5.14248 20.5449 4.65587 20.059 4.22007 19.5297M3.0947 17.8601C2.75263 17.2296 2.47324 16.5602 2.2649 15.8601" stroke="#FCFDFF" stroke-opacity="0.937"/>
</g>
</svg>
