<svg width="24" height="25" viewBox="0 0 24 25" fill="none" xmlns="http://www.w3.org/2000/svg">
<g id="SVG">
<path id="Vector" d="M15 6.36011H5C3.067 6.36011 1.5 7.92711 1.5 9.86011V19.8601C1.5 21.7931 3.067 23.3601 5 23.3601H15C16.933 23.3601 18.5 21.7931 18.5 19.8601V9.86011C18.5 7.92711 16.933 6.36011 15 6.36011Z" stroke="#FCFDFF" stroke-opacity="0.937"/>
<path id="Vector_2" d="M4.5 14.8601V10.8601C4.5 10.584 4.72386 10.3601 5 10.3601H15C15.2761 10.3601 15.5 10.584 15.5 10.8601V14.8601C15.5 15.1362 15.2761 15.3601 15 15.3601H13.5V16.8601C13.5 17.1362 13.2761 17.3601 13 17.3601H11.5V18.8601C11.5 19.1362 11.2761 19.3601 11 19.3601H9C8.72386 19.3601 8.5 19.1362 8.5 18.8601V17.3601H7C6.72386 17.3601 6.5 17.1362 6.5 16.8601V15.3601H5C4.72386 15.3601 4.5 15.1362 4.5 14.8601Z" stroke="#FCFDFF" stroke-opacity="0.937"/>
<path id="Vector_3" d="M6.5 10.3601V12.8601M8.5 10.3601V12.8601M11.5 10.3601V12.8601M13.5 10.3601V12.8601" stroke="#FCFDFF" stroke-opacity="0.937"/>
<path id="Vector_4" fill-rule="evenodd" clip-rule="evenodd" d="M11.3999 2.86011H16.5999C17.7365 2.86011 18.5288 2.86089 19.1457 2.91129C19.7508 2.96073 20.0985 3.0529 20.3619 3.18709C20.9263 3.47471 21.3853 3.93365 21.6729 4.49814C21.8071 4.76149 21.8993 5.10918 21.9487 5.71435C21.9991 6.33119 21.9999 7.1235 21.9999 8.26011V13.4601C21.9999 14.5967 21.9991 15.389 21.9487 16.0059C21.8993 16.611 21.8071 16.9587 21.6729 17.2221C21.3853 17.7866 20.9263 18.2455 20.3619 18.5331C20.2579 18.5861 20.1407 18.6325 19.9998 18.6724V19.7008C20.3065 19.6373 20.5719 19.5484 20.8159 19.4241C21.5685 19.0406 22.1804 18.4287 22.5639 17.6761C22.9999 16.8204 22.9999 15.7003 22.9999 13.4601V8.26011C22.9999 6.0199 22.9999 4.8998 22.5639 4.04415C22.1804 3.2915 21.5685 2.67958 20.8159 2.29608C19.9602 1.86011 18.8401 1.86011 16.5999 1.86011H11.3999C9.15964 1.86011 8.03954 1.86011 7.18389 2.29608C6.43124 2.67958 5.81932 3.2915 5.43583 4.04415C5.31156 4.28804 5.22271 4.55343 5.15918 4.86011H6.1876C6.22743 4.71921 6.27386 4.6021 6.32683 4.49814C6.61445 3.93365 7.07339 3.47471 7.63788 3.18709C7.90124 3.0529 8.24892 2.96073 8.85409 2.91129C9.47093 2.86089 10.2633 2.86011 11.3999 2.86011Z" fill="#FCFDFF" fill-opacity="0.937"/>
</g>
</svg>
