<svg width="25" height="25" viewBox="0 0 25 25" fill="none" xmlns="http://www.w3.org/2000/svg">
<g id="SVG" clip-path="url(#clip0_1_655)">
<path id="Vector" d="M24.1602 10.03V9.93003C24.1602 7.68982 24.1602 6.56971 23.7242 5.71407C23.3407 4.96142 22.7288 4.3495 21.9762 3.966C21.1205 3.53003 20.0004 3.53003 17.7602 3.53003H16.6602M24.1602 15.03C24.1602 16.4256 24.1602 17.1233 23.988 17.6911C23.6002 18.9695 22.5997 19.97 21.3213 20.3578C20.7535 20.53 20.0558 20.53 18.6602 20.53H16.6602M1.16016 10.03V9.93003C1.16016 7.68982 1.16016 6.56971 1.59613 5.71407C1.97963 4.96142 2.59155 4.3495 3.3442 3.966C4.19984 3.53003 5.31995 3.53003 7.56016 3.53003H8.66016M1.16016 15.03C1.16016 16.4256 1.16016 17.1233 1.3324 17.6911C1.7202 18.9695 2.72062 19.97 3.99902 20.3578C4.56682 20.53 5.2646 20.53 6.66016 20.53H8.66016" stroke="#FCFDFF" stroke-opacity="0.937" stroke-linejoin="round"/>
<path id="Vector_2" d="M8.45998 10.7302L7.16016 12.03L9.02683 13.43C9.11337 13.4949 9.21864 13.53 9.32683 13.53H10.453C10.5857 13.53 10.7129 13.4773 10.8066 13.3836L12.1602 12.03L10.7323 11.078C10.6846 11.0463 10.6317 11.0229 10.5761 11.009L8.9348 10.5987C8.76442 10.5561 8.58417 10.606 8.45998 10.7302Z" stroke="#FCFDFF" stroke-opacity="0.937" stroke-linejoin="round"/>
<path id="Vector_3" d="M14.5881 11.078L13.1602 12.03L15.0269 13.43C15.1134 13.4949 15.2187 13.53 15.3269 13.53H15.9935C16.1017 13.53 16.207 13.4949 16.2935 13.43L18.1602 12.03L16.8604 10.7302C16.7362 10.606 16.5559 10.5561 16.3856 10.5987L14.7442 11.009C14.6886 11.0229 14.6358 11.0463 14.5881 11.078Z" stroke="#FCFDFF" stroke-opacity="0.937" stroke-linejoin="round"/>
<path id="Vector_4" d="M21.1602 12.4609V10.2458C21.1602 9.25873 20.44 8.41923 19.4643 8.26912L16.6369 7.83414C15.321 7.6317 13.9916 7.53003 12.6602 7.53003C11.3288 7.53003 9.99933 7.6317 8.68342 7.83414L5.85605 8.26912C4.88038 8.41923 4.16016 9.25873 4.16016 10.2458V12.4609C4.16016 14.0354 5.04973 15.4748 6.458 16.1789C6.91976 16.4098 7.42893 16.53 7.9452 16.53H8.39085C8.89905 16.53 9.40259 16.433 9.87445 16.2443L10.7317 15.9014C11.3451 15.6561 11.9996 15.53 12.6602 15.53C13.3208 15.53 13.9753 15.6561 14.5887 15.9014L15.4459 16.2443C15.9178 16.433 16.4213 16.53 16.9295 16.53H17.3752C17.8914 16.53 18.4006 16.4098 18.8624 16.1789C20.2706 15.4748 21.1602 14.0354 21.1602 12.4609Z" stroke="#FCFDFF" stroke-opacity="0.937"/>
</g>
<defs>
<clipPath id="clip0_1_655">
<rect width="24" height="24" fill="white" transform="translate(0.660156 0.0300293)"/>
</clipPath>
</defs>
</svg>
