<svg width="24" height="25" viewBox="0 0 24 25" fill="none" xmlns="http://www.w3.org/2000/svg">
<g id="SVG">
<path id="Vector" d="M18.4895 15.4391L19.1845 15.7209L19.8372 14.1114L18.2181 14.7399L18.4895 15.4391ZM13.1969 5.91181L13.6478 6.51116L15.0352 5.46748L13.3242 5.1727L13.1969 5.91181ZM18.2181 14.7399C17.6863 14.9463 17.1073 15.0599 16.5 15.0599V16.5599C17.2959 16.5599 18.0587 16.4108 18.7609 16.1382L18.2181 14.7399ZM16.5 15.0599C13.8766 15.0599 11.75 12.9333 11.75 10.3099H10.25C10.25 13.7617 13.0482 16.5599 16.5 16.5599V15.0599ZM11.75 10.3099C11.75 8.75754 12.4939 7.37915 13.6478 6.51116L12.746 5.31245C11.2317 6.4516 10.25 8.26621 10.25 10.3099H11.75ZM12 6.55988C12.3652 6.55988 12.7225 6.59112 13.0696 6.65092L13.3242 5.1727C12.8934 5.09847 12.4509 5.05988 12 5.05988V6.55988ZM5.75 12.8099C5.75 9.3581 8.54822 6.55988 12 6.55988V5.05988C7.71979 5.05988 4.25 8.52967 4.25 12.8099H5.75ZM12 19.0599C8.54822 19.0599 5.75 16.2617 5.75 12.8099H4.25C4.25 17.0901 7.71979 20.5599 12 20.5599V19.0599ZM17.7945 15.1572C16.8658 17.4471 14.6204 19.0599 12 19.0599V20.5599C15.2519 20.5599 18.0342 18.5573 19.1845 15.7209L17.7945 15.1572Z" fill="white"/>
</g>
</svg>
