<svg width="24" height="25" viewBox="0 0 24 25" fill="none" xmlns="http://www.w3.org/2000/svg">
<g id="SVG">
<path id="Vector" fill-rule="evenodd" clip-rule="evenodd" d="M12 4.80988C11.4477 4.80988 11 5.2576 11 5.80988C11 6.36216 11.4477 6.80988 12 6.80988C12.5523 6.80988 13 6.36216 13 5.80988C13 5.2576 12.5523 4.80988 12 4.80988ZM5 11.8099C4.44772 11.8099 4 12.2576 4 12.8099C4 13.3622 4.44772 13.8099 5 13.8099C5.55228 13.8099 6 13.3622 6 12.8099C6 12.2576 5.55228 11.8099 5 11.8099ZM19 11.8099C18.4477 11.8099 18 12.2576 18 12.8099C18 13.3622 18.4477 13.8099 19 13.8099C19.5523 13.8099 20 13.3622 20 12.8099C20 12.2576 19.5523 11.8099 19 11.8099ZM12 18.8099C11.4477 18.8099 11 19.2576 11 19.8099C11 20.3622 11.4477 20.8099 12 20.8099C12.5523 20.8099 13 20.3622 13 19.8099C13 19.2576 12.5523 18.8099 12 18.8099ZM12 9.55988C10.2051 9.55988 8.75 11.015 8.75 12.8099C8.75 14.6048 10.2051 16.0599 12 16.0599C13.7949 16.0599 15.25 14.6048 15.25 12.8099C15.25 11.015 13.7949 9.55988 12 9.55988ZM7.25 12.8099C7.25 10.1865 9.37665 8.05988 12 8.05988C14.6234 8.05988 16.75 10.1865 16.75 12.8099C16.75 15.4333 14.6234 17.5599 12 17.5599C9.37665 17.5599 7.25 15.4333 7.25 12.8099ZM6.34319 8.56728C5.95266 8.17676 5.95266 7.54359 6.34319 7.15307C6.73371 6.76254 7.36688 6.76254 7.7574 7.15307C8.14792 7.54359 8.14792 8.17676 7.7574 8.56728C7.36688 8.9578 6.73371 8.9578 6.34319 8.56728ZM6.34319 18.4668C5.95266 18.0763 5.95266 17.4431 6.34319 17.0526C6.73371 16.6621 7.36688 16.6621 7.7574 17.0526C8.14792 17.4431 8.14792 18.0763 7.7574 18.4668C7.36688 18.8573 6.73371 18.8573 6.34319 18.4668ZM16.2427 8.56728C15.8522 8.17676 15.8522 7.54359 16.2427 7.15307C16.6332 6.76254 17.2664 6.76254 17.6569 7.15307C18.0474 7.54359 18.0474 8.17676 17.6569 8.56728C17.2664 8.9578 16.6332 8.9578 16.2427 8.56728ZM16.2427 18.4668C15.8522 18.0763 15.8522 17.4431 16.2427 17.0526C16.6332 16.6621 17.2664 16.6621 17.6569 17.0526C18.0474 17.4431 18.0474 18.0763 17.6569 18.4668C17.2664 18.8573 16.6332 18.8573 16.2427 18.4668Z" fill="#EFF5FF" fill-opacity="0.694"/>
</g>
</svg>
