<svg width="70" height="18" viewBox="0 0 70 18" fill="none" xmlns="http://www.w3.org/2000/svg">
<g id="Link - Resend &#226;&#134;&#146; SVG" clip-path="url(#clip0_1_1165)">
<path id="Vector" d="M0.906738 16.5338V1.46631H7.57903C8.51171 1.46631 9.3583 1.68156 10.1188 2.11206C10.8793 2.52821 11.4748 3.09503 11.9053 3.81253C12.3501 4.53004 12.5725 5.34799 12.5725 6.26638C12.5725 7.17043 12.3501 7.99556 11.9053 8.74176C11.4748 9.47361 10.8793 10.0548 10.1188 10.4853C9.3583 10.9158 8.51171 11.131 7.57903 11.131H4.02765V16.5338H0.906738ZM9.45157 16.5338L5.62039 9.73191L8.93501 9.19378L13.1967 16.5553L9.45157 16.5338ZM4.02765 8.50498H7.42836C7.81578 8.50498 8.15298 8.41888 8.43997 8.24668C8.74129 8.06014 8.97087 7.809 9.12872 7.49331C9.28655 7.16327 9.36548 6.79734 9.36548 6.39553C9.36548 5.96503 9.2722 5.59194 9.08567 5.27623C8.89914 4.96054 8.6265 4.71658 8.26778 4.54438C7.90906 4.35784 7.49293 4.26456 7.01941 4.26456H4.02765V8.50498Z" fill="white"/>
<path id="Vector_2" d="M19.4527 16.7481C18.2187 16.7481 17.1353 16.497 16.2025 15.9948C15.2842 15.4925 14.5669 14.8038 14.0502 13.9285C13.5481 13.0533 13.2969 12.0488 13.2969 10.9153C13.2969 10.0256 13.4404 9.2149 13.7273 8.4831C14.0144 7.7513 14.4161 7.11995 14.9327 6.58903C15.4492 6.04377 16.0591 5.62765 16.7623 5.34067C17.4796 5.03934 18.2545 4.88867 19.0868 4.88867C19.8617 4.88867 20.579 5.03217 21.2392 5.31914C21.8992 5.60613 22.466 6.00789 22.9395 6.52446C23.4273 7.02668 23.8005 7.62933 24.0587 8.33243C24.317 9.02118 24.4317 9.76734 24.4031 10.5709L24.3816 11.5179H15.2341L14.7389 9.64537H21.8633L21.519 10.0328V9.55927C21.4902 9.17185 21.3611 8.82747 21.1314 8.52614C20.9163 8.21047 20.6365 7.96653 20.2921 7.79434C19.9477 7.60781 19.5602 7.51454 19.1297 7.51454C18.4985 7.51454 17.9604 7.63651 17.5155 7.88044C17.085 8.12438 16.7551 8.4831 16.5254 8.95661C16.2959 9.43013 16.181 10.0041 16.181 10.6785C16.181 11.3672 16.3246 11.9627 16.6116 12.4649C16.9129 12.9672 17.329 13.3617 17.86 13.6487C18.4052 13.9213 19.0436 14.0577 19.7754 14.0577C20.2777 14.0577 20.7369 13.9788 21.1531 13.8209C21.5691 13.663 22.0139 13.3904 22.4875 13.003L23.9511 15.0478C23.535 15.4209 23.0758 15.7365 22.5736 15.9948C22.0714 16.2388 21.5548 16.4253 21.0238 16.5544C20.4929 16.6835 19.9693 16.7481 19.4527 16.7481Z" fill="white"/>
<path id="Vector_3" d="M29.417 16.7481C28.3551 16.7481 27.4081 16.5759 26.5759 16.2315C25.758 15.8728 25.098 15.3849 24.5957 14.7679L26.5113 13.1321C26.9418 13.6056 27.4296 13.95 27.9749 14.1653C28.5202 14.3662 29.0654 14.4666 29.6107 14.4666C29.8259 14.4666 30.0196 14.4451 30.1918 14.402C30.3783 14.3446 30.5362 14.2729 30.6653 14.1868C30.7945 14.0864 30.8878 13.9715 30.9451 13.8424C31.0169 13.6989 31.0528 13.5483 31.0528 13.3904C31.0528 13.0748 30.9236 12.8308 30.6653 12.6586C30.5219 12.5725 30.2994 12.4792 29.9981 12.3788C29.6968 12.264 29.3094 12.142 28.8358 12.0129C28.104 11.8264 27.4799 11.6112 26.9633 11.3672C26.461 11.1089 26.0593 10.822 25.758 10.5063C25.4997 10.2049 25.2988 9.88208 25.1553 9.53771C25.0262 9.17899 24.9616 8.78439 24.9616 8.35392C24.9616 7.83735 25.0764 7.37101 25.306 6.95489C25.5355 6.52442 25.8513 6.15852 26.253 5.85719C26.6692 5.55586 27.1427 5.32628 27.6736 5.16844C28.2044 4.99625 28.7641 4.91016 29.3524 4.91016C29.9407 4.91016 30.5147 4.98191 31.0743 5.12539C31.6339 5.26889 32.1505 5.47695 32.624 5.74957C33.1118 6.00785 33.5352 6.31636 33.8939 6.67508L32.2581 8.48306C31.9998 8.23912 31.7057 8.01672 31.3756 7.81583C31.06 7.61495 30.7299 7.45711 30.3855 7.34231C30.0411 7.22753 29.7326 7.17012 29.46 7.17012C29.216 7.17012 28.9937 7.19165 28.7928 7.23469C28.6063 7.27774 28.4484 7.34949 28.3193 7.44993C28.1901 7.53602 28.0897 7.64364 28.0179 7.77278C27.9606 7.90192 27.9318 8.04541 27.9318 8.20325C27.9318 8.36109 27.9677 8.51176 28.0395 8.65525C28.1256 8.79874 28.2404 8.92071 28.3838 9.02114C28.5417 9.10724 28.7713 9.20769 29.0726 9.32247C29.3882 9.43727 29.8116 9.56641 30.3425 9.7099C31.0312 9.89644 31.6124 10.1045 32.0859 10.3341C32.5737 10.5637 32.9611 10.8291 33.2482 11.1304C33.4921 11.3887 33.6714 11.6828 33.7862 12.0129C33.9011 12.343 33.9584 12.7089 33.9584 13.1106C33.9584 13.8137 33.7575 14.4378 33.3558 14.9831C32.9683 15.5284 32.4303 15.9589 31.7415 16.2746C31.0528 16.5902 30.2779 16.7481 29.417 16.7481Z" fill="white"/>
<path id="Vector_4" d="M40.4633 16.7481C39.2293 16.7481 38.146 16.497 37.2133 15.9948C36.295 15.4925 35.5775 14.8038 35.0609 13.9285C34.5587 13.0533 34.3076 12.0488 34.3076 10.9153C34.3076 10.0256 34.4511 9.2149 34.7381 8.4831C35.0251 7.7513 35.4268 7.11995 35.9434 6.58903C36.46 6.04377 37.0698 5.62765 37.7729 5.34067C38.4904 5.03934 39.2652 4.88867 40.0974 4.88867C40.8723 4.88867 41.5898 5.03217 42.2498 5.31914C42.9098 5.60613 43.4766 6.00789 43.9501 6.52446C44.438 7.02668 44.8111 7.62933 45.0694 8.33243C45.3276 9.02118 45.4425 9.76734 45.4137 10.5709L45.3922 11.5179H36.2447L35.7497 9.64537H42.874L42.5296 10.0328V9.55927C42.5009 9.17185 42.3717 8.82747 42.1422 8.52614C41.9269 8.21047 41.6471 7.96653 41.3028 7.79434C40.9584 7.60781 40.571 7.51454 40.1405 7.51454C39.5091 7.51454 38.971 7.63651 38.5262 7.88044C38.0958 8.12438 37.7657 8.4831 37.5361 8.95661C37.3066 9.43013 37.1918 10.0041 37.1918 10.6785C37.1918 11.3672 37.3352 11.9627 37.6222 12.4649C37.9236 12.9672 38.3397 13.3617 38.8706 13.6487C39.4159 13.9213 40.0544 14.0577 40.7862 14.0577C41.2884 14.0577 41.7475 13.9788 42.1637 13.8209C42.5799 13.663 43.0246 13.3904 43.4982 13.003L44.9618 15.0478C44.5456 15.4209 44.0865 15.7365 43.5842 15.9948C43.082 16.2388 42.5654 16.4253 42.0346 16.5544C41.5037 16.6835 40.9799 16.7481 40.4633 16.7481Z" fill="white"/>
<path id="Vector_5" d="M46.5962 16.5328V5.14692H49.5234L49.6095 7.47145L49.0068 7.72974C49.1647 7.21317 49.4445 6.74683 49.8462 6.33071C50.2624 5.90024 50.7574 5.55586 51.3314 5.29758C51.9054 5.0393 52.508 4.91016 53.1393 4.91016C54.0003 4.91016 54.7178 5.08234 55.2917 5.42672C55.88 5.7711 56.3177 6.29484 56.6046 6.99794C56.9059 7.68669 57.0566 8.54046 57.0566 9.55923V16.5328H54.0003V9.79599C54.0003 9.27943 53.9286 8.84896 53.785 8.50458C53.6416 8.1602 53.4191 7.9091 53.1178 7.75126C52.8309 7.59342 52.4721 7.52168 52.0416 7.53602C51.6973 7.53602 51.3744 7.59343 51.0731 7.70821C50.7862 7.80865 50.535 7.95933 50.3198 8.1602C50.1189 8.36109 49.9539 8.59068 49.8247 8.84896C49.71 9.10724 49.6525 9.38704 49.6525 9.68837V16.5328H48.1459C47.8159 16.5328 47.5217 16.5328 47.2634 16.5328C47.0051 16.5328 46.7828 16.5328 46.5962 16.5328Z" fill="white"/>
<path id="Vector_6" d="M63.3644 16.7492C62.3601 16.7492 61.4633 16.4981 60.674 15.9958C59.8992 15.4792 59.2822 14.7832 58.823 13.9079C58.3782 13.0182 58.1558 11.9922 58.1558 10.8298C58.1558 9.69619 58.3782 8.68452 58.823 7.79482C59.2822 6.89077 59.8992 6.18762 60.674 5.68537C61.4633 5.16877 62.3601 4.91047 63.3644 4.91047C63.8954 4.91047 64.4048 4.99657 64.8926 5.16877C65.3949 5.32662 65.8397 5.54905 66.2271 5.83604C66.6289 6.12304 66.9518 6.44592 67.1956 6.80467C67.4396 7.14907 67.576 7.50782 67.6046 7.88092L66.8297 8.03159V0.605469H69.9076V16.534H67.0019L66.8728 13.9079L67.4754 13.9725C67.4468 14.3312 67.3177 14.6756 67.088 15.0057C66.8585 15.3358 66.5499 15.6371 66.1625 15.9097C65.7895 16.168 65.359 16.3761 64.8711 16.534C64.3976 16.6774 63.8954 16.7492 63.3644 16.7492ZM64.0532 14.2093C64.6272 14.2093 65.1294 14.0658 65.5598 13.7788C65.9903 13.4917 66.3276 13.0972 66.5714 12.5949C66.8154 12.0926 66.9373 11.5043 66.9373 10.8298C66.9373 10.1697 66.8154 9.58857 66.5714 9.08632C66.3276 8.58407 65.9903 8.18944 65.5598 7.90244C65.1294 7.61545 64.6272 7.47194 64.0532 7.47194C63.4793 7.47194 62.977 7.61545 62.5466 7.90244C62.1305 8.18944 61.8004 8.58407 61.5565 9.08632C61.3269 9.58857 61.2121 10.1697 61.2121 10.8298C61.2121 11.5043 61.3269 12.0926 61.5565 12.5949C61.8004 13.0972 62.1305 13.4917 62.5466 13.7788C62.977 14.0658 63.4793 14.2093 64.0532 14.2093Z" fill="white"/>
</g>
<defs>
<clipPath id="clip0_1_1165">
<rect width="70" height="17.22" fill="white" transform="translate(0 0.390137)"/>
</clipPath>
</defs>
</svg>
